 http://www.imdb.com/title/tt0427152/


Torrent Description


Genre:Comedy
Language:English
IMDb:http://www.imdb.com/title/tt0427152/
Source:Hogs.Thanks
Sample:YES
....................................................
General
Complete name : Dinner for Schmucks CAM 2010 XVID FEEL-FREE
Format : AVI
Format/Info : Audio Video Interleave
File size : 1.17 GiB
Duration : 1h 49mn
Overall bit rate : 1 528 Kbps
Writing library : VirtualDub build 32817/release
.....................................................
Video
Format : MPEG-4 Visual
Format profile : AdvancedSimple@L5
Format settings, BVOP : Yes
Format settings, QPel : No
Format settings, GMC : No warppoints
Format settings, Matrix : Custom
Codec ID : XVID
Codec ID/Hint : XviD
Duration : 1h 49mn
Bit rate : 1 260 Kbps
Width : 652 pixels
Height : 352 pixels
Display aspect ratio : 1.852
Frame rate : 30.000 fps
Resolution : 24 bits
Colorimetry : 4:2:0
Scan type : Progressive
Bits/(Pixel*Frame) : 0.183
Stream size : 985 MiB (82%)
Writing library : XviD 1.2.1 (UTC 2008-12-04)
.......................................................
Audio
ID : 1
Format : MPEG Audio
Format version : Version 1
Format profile : Layer 3
Codec ID : 55
Codec ID/Hint : MP3
Duration : 1h 49mn
Bit rate mode : Constant
Bit rate : 256 Kbps
Channel(s) : 2 channels
Sampling rate : 48.0 KHz
Resolution : 16 bits
Stream size : 200 MiB (17%)
Alignment : Split accross interleaves
Interleave, duration : 33 ms (1.00 video frame)
Interleave, preload duration : 500 ms
........................................................
Plot:
Tim (Rudd) is a rising executive who "succeeds" in finding the perfect guest, IRS employee Barry (Carell)
........................................................